<?xml version="1.0" encoding="UTF-8"?>
<svg width="32px" height="32px" viewBox="0 0 32 32" version="1.1" xmlns="http://www.w3.org/2000/svg" xmlns:xlink="http://www.w3.org/1999/xlink">
    <title>logo-narrow</title>
    <g id="页面-1" stroke="none" stroke-width="1" fill="none" fill-rule="evenodd">
        <g id="logo-narrow" transform="translate(1.000000, 0.000000)" fill-rule="nonzero">
            <path d="M10,7.25980531 C10,6.37063439 10.5647489,5.58324288 11.3974006,5.31160263 L27.3732844,0.0992975548 C28.6718537,-0.324372436 30,0.660675127 30,2.04751047 L30,10.4533915 C30,11.4173753 29.3383413,12.2505159 28.4116972,12.4535837 L12.4357129,15.9533061 C11.1826156,16.2278824 10,15.2567375 10,13.9532162 L10,7.25980531 Z" id="路径" fill="#92BDFF"></path>
            <path d="M0.734451049,12.0254899 C0.295209494,12.1780266 0,12.5979238 0,13.0700712 L0,21.9133011 C0,22.6287909 0.658883044,23.1552953 1.34221154,22.985693 L9.4126297,21.4994084 L9.4126297,30.8962159 C9.4126297,31.5058359 9.89844252,32 10.4976907,32 L18.9148354,32 C19.5141147,32 20,31.5058359 20,30.8962159 L20,7.10470704 C20,6.3478807 19.2682725,5.81554032 18.5641944,6.06009412 L0.734451049,12.0254899 Z" id="路径" fill-opacity="0.8" fill="#0066FE"></path>
            <path d="M20,14.1259672 L11.7950867,15.9457751 C10.35711,16.2646956 9,15.1364546 9,13.621942 L9,9.28300527 L18.5083345,6.06319273 C19.2398574,5.80602911 20,6.36581831 20,7.16166853 L20,14.1259672 Z" id="路径" fill="#0066FE"></path>
        </g>
    </g>
</svg>